<svg width="129" height="114" viewBox="0 0 129 114" fill="none" xmlns="http://www.w3.org/2000/svg">
<path fill-rule="evenodd" clip-rule="evenodd" d="M32.4201 0.16238C24.4496 1.16151 17.7816 4.43201 12.119 10.1204C7.05284 15.2094 4.00145 20.6058 2.22829 27.6126C-0.850861 39.7799 1.38797 51.7607 8.84301 63.0089C13.6233 70.2213 19.7878 76.8412 31.1261 86.9373C38.3385 93.3595 60.3202 112.08 61.3874 112.708C62.3927 113.301 62.7664 113.371 64.8887 113.371C67.0097 113.371 67.3854 113.3 68.39 112.709C69.4601 112.08 91.4916 93.3153 98.6513 86.9353C110.021 76.8045 116.161 70.2115 120.934 63.0089C128.389 51.7607 130.628 39.7799 127.549 27.6126C125.776 20.6058 122.725 15.2094 117.658 10.1204C112.61 5.04916 107.205 2.12268 100.12 0.623995C96.5813 -0.124725 90.0263 -0.190135 86.9101 0.491677C78.2747 2.38158 71.6352 6.70538 65.5764 14.3846L64.8887 15.2564L64.2009 14.3846C58.2477 6.83895 51.709 2.51564 43.3806 0.618253C40.8947 0.0520319 35.1936 -0.185142 32.4201 0.16238Z" fill="#5EBCF9"/>
<path d="M57.8877 75.9178C76.9973 75.9178 87.4461 58.8777 87.4461 44.1096C87.4461 43.6227 87.4461 43.1359 87.4246 42.6722C89.4497 41.0957 91.2164 39.1251 92.6167 36.8763C90.7639 37.7572 88.7603 38.36 86.649 38.6382C88.8034 37.2472 90.4408 35.0679 91.2164 32.4482C89.2128 33.7233 86.9937 34.6506 84.6239 35.1607C82.728 32.9814 80.035 31.6367 77.0404 31.6367C71.3097 31.6367 66.6562 36.6444 66.6562 42.8113C66.6562 43.6923 66.7423 44.5501 66.9362 45.3615C58.2971 44.8979 50.6489 40.4466 45.5214 33.6769C44.6381 35.3229 44.1211 37.2472 44.1211 39.2874C44.1211 43.1591 45.9523 46.5903 48.7531 48.5841C47.0511 48.5377 45.4568 48.0277 44.0564 47.1931C44.0564 47.2394 44.0564 47.2858 44.0564 47.3322C44.0564 52.7572 47.6328 57.2548 52.394 58.2981C51.5322 58.5531 50.6058 58.6922 49.6579 58.6922C48.99 58.6922 48.3437 58.6227 47.6974 58.4836C49.0116 62.9349 52.8464 66.1574 57.3922 66.2501C53.8374 69.2409 49.3563 71.026 44.4873 71.026C43.6471 71.026 42.8284 70.9796 42.0098 70.8637C46.5556 74.0631 52.0277 75.9178 57.8877 75.9178Z" fill="white"/>
</svg>
