<svg width="16" height="15" viewBox="0 0 16 15" fill="none" xmlns="http://www.w3.org/2000/svg">
<path fill-rule="evenodd" clip-rule="evenodd" d="M3.94142 0.0202975C2.94511 0.145188 2.11162 0.554001 1.40379 1.26505C0.770521 1.90118 0.389097 2.57572 0.167452 3.45158C-0.217442 4.97249 0.0624128 6.47008 0.994292 7.87612C1.59183 8.77766 2.3624 9.60515 3.77968 10.8672C4.68123 11.6699 7.42894 14.01 7.56234 14.0885C7.68801 14.1626 7.73471 14.1714 8 14.1714C8.26513 14.1714 8.31209 14.1625 8.43766 14.0887C8.57143 14.01 11.3254 11.6644 12.2203 10.8669C13.6415 9.60056 14.409 8.77644 15.0057 7.87612C15.9376 6.47008 16.2174 4.97249 15.8325 3.45158C15.6109 2.57572 15.2295 1.90118 14.5962 1.26505C13.9652 0.631145 13.2896 0.265335 12.4039 0.0779994C11.9616 -0.0155907 11.1422 -0.0237669 10.7527 0.0614597C9.67325 0.297697 8.84332 0.838173 8.08597 1.79807L8 1.90705L7.91403 1.79807C7.16988 0.854869 6.35254 0.314455 5.3115 0.0772816C5.00076 0.00650399 4.28812 -0.0231428 3.94142 0.0202975Z" fill="#5EBCF9"/>
<path d="M7.12537 9.48826C9.51407 9.48826 10.8202 7.35825 10.8202 5.51224C10.8202 5.45138 10.8202 5.39052 10.8175 5.33256C11.0706 5.1355 11.2914 4.88917 11.4665 4.60807C11.2349 4.71819 10.9844 4.79354 10.7205 4.82831C10.9898 4.65444 11.1945 4.38203 11.2914 4.05455C11.041 4.21394 10.7636 4.32986 10.4674 4.39362C10.2304 4.12121 9.89378 3.95312 9.51945 3.95312C8.80311 3.95312 8.22142 4.57909 8.22142 5.34995C8.22142 5.46007 8.23219 5.5673 8.25643 5.66873C7.17654 5.61077 6.22052 5.05436 5.57958 4.20815C5.46917 4.4139 5.40454 4.65444 5.40454 4.90946C5.40454 5.39342 5.63345 5.82232 5.98354 6.07155C5.77079 6.06575 5.57151 6.00199 5.39646 5.89767C5.39646 5.90346 5.39646 5.90926 5.39646 5.91505C5.39646 6.59318 5.8435 7.15539 6.43865 7.2858C6.33093 7.31768 6.21513 7.33506 6.09664 7.33506C6.01316 7.33506 5.93237 7.32637 5.85158 7.30898C6.01585 7.86539 6.49521 8.26821 7.06343 8.2798C6.61909 8.65364 6.05894 8.87679 5.45032 8.87679C5.34529 8.87679 5.24296 8.87099 5.14062 8.8565C5.70885 9.25642 6.39287 9.48826 7.12537 9.48826Z" fill="white"/>
</svg>
