<svg width="32" height="29" viewBox="0 0 32 29" fill="none" xmlns="http://www.w3.org/2000/svg">
<path fill-rule="evenodd" clip-rule="evenodd" d="M7.88285 0.040595C5.89023 0.290376 4.22323 1.108 2.80758 2.53011C1.54104 3.80236 0.778195 5.15144 0.334904 6.90316C-0.434883 9.94497 0.124826 12.9402 1.98858 15.7522C3.18365 17.5553 4.72479 19.2103 7.55935 21.7343C9.36246 23.3399 14.8579 28.0199 15.1247 28.1771C15.376 28.3251 15.4694 28.3429 16 28.3429C16.5303 28.3429 16.6242 28.3251 16.8753 28.1773C17.1429 28.0199 22.6507 23.3288 24.4407 21.7338C27.283 19.2011 28.818 17.5529 30.0114 15.7522C31.8752 12.9402 32.4349 9.94497 31.6651 6.90316C31.2218 5.15144 30.459 3.80236 29.1924 2.53011C27.9303 1.26229 26.5792 0.530671 24.8079 0.155999C23.9231 -0.0311813 22.2844 -0.0475338 21.5054 0.122919C19.3465 0.595394 17.6866 1.67635 16.1719 3.59614L16 3.81409L15.8281 3.59614C14.3398 1.70974 12.7051 0.628911 10.623 0.154563C10.0015 0.013008 8.57623 -0.0462855 7.88285 0.040595Z" fill="#5EBCF9"/>
<path d="M14.2488 18.9804C19.0262 18.9804 21.6384 14.7204 21.6384 11.0284C21.6384 10.9067 21.6384 10.7849 21.633 10.669C22.1393 10.2749 22.5809 9.78225 22.931 9.22004C22.4678 9.44029 21.9669 9.59098 21.4391 9.66053C21.9777 9.31278 22.387 8.76796 22.5809 8.11301C22.08 8.43179 21.5253 8.66363 20.9328 8.79114C20.4589 8.24632 19.7856 7.91016 19.0369 7.91016C17.6043 7.91016 16.4409 9.16208 16.4409 10.7038C16.4409 10.9241 16.4624 11.1385 16.5109 11.3414C14.3511 11.2254 12.4391 10.1126 11.1572 8.4202C10.9364 8.83171 10.8071 9.31278 10.8071 9.82282C10.8071 10.7907 11.2649 11.6485 11.9651 12.147C11.5396 12.1354 11.1411 12.0079 10.791 11.7992C10.791 11.8108 10.791 11.8224 10.791 11.834C10.791 13.1903 11.685 14.3147 12.8754 14.5755C12.6599 14.6393 12.4283 14.674 12.1913 14.674C12.0244 14.674 11.8628 14.6566 11.7012 14.6219C12.0298 15.7347 12.9885 16.5403 14.1249 16.5635C13.2362 17.3112 12.1159 17.7575 10.8987 17.7575C10.6886 17.7575 10.484 17.7459 10.2793 17.7169C11.4157 18.5168 12.7838 18.9804 14.2488 18.9804Z" fill="white"/>
</svg>
